<?xml version="1.0" encoding="UTF-8"?>
<svg width="118.27mm" height="20.164mm" version="1.1" viewBox="0 0 118.27295 20.163725" xmlns="http://www.w3.org/2000/svg" xmlns:cc="http://creativecommons.org/ns#" xmlns:dc="http://purl.org/dc/elements/1.1/" xmlns:rdf="http://www.w3.org/1999/02/22-rdf-syntax-ns#">
<metadata>
<rdf:RDF>
<cc:Work rdf:about="">
<dc:format>image/svg+xml</dc:format>
<dc:type rdf:resource="http://purl.org/dc/dcmitype/StillImage"/>
<dc:title/>
</cc:Work>
</rdf:RDF>
</metadata>
<g transform="translate(-32.334 -71.472)">
<g transform="matrix(1.0012 0 0 1.0012 -12.804 11.987)">
<g fill="#03254c" stroke-width=".26458px" aria-label="CS">
<path d="m53.189 76.165q-1.7385 0-3.2286-0.63218-1.4901-0.63218-2.5739-1.7159-1.0837-1.1063-1.6933-2.5964-0.6096-1.4901-0.6096-3.1835v-0.04516q0-1.6933 0.6096-3.1609 0.6096-1.4901 1.6933-2.5964 1.0837-1.1289 2.5964-1.7611 1.5127-0.65476 3.3415-0.65476 1.1063 0 2.0094 0.18062 0.92569 0.18062 1.6708 0.49671t1.3772 0.76764q0.63218 0.45156 1.174 0.99342l-2.2126 2.5513q-0.92569-0.83538-1.8965-1.3095-0.94827-0.47413-2.1449-0.47413-0.99342 0-1.8514 0.38382-0.83538 0.38382-1.445 1.0612t-0.94827 1.5804q-0.33867 0.88053-0.33867 1.8965v0.04515q0 1.016 0.33867 1.9191 0.33867 0.90311 0.92569 1.5804 0.6096 0.67733 1.445 1.0837 0.85796 0.38382 1.874 0.38382 1.3547 0 2.2804-0.49671 0.94827-0.49671 1.874-1.3547l2.2126 2.2352q-0.6096 0.65476-1.2644 1.174-0.65476 0.51929-1.445 0.90311-0.76764 0.36124-1.6933 0.54187-0.92569 0.2032-2.0772 0.2032z"/>
<path d="m68.074 76.12q-1.8062 0-3.5447-0.6096-1.7385-0.63218-3.1609-1.9191l2.0546-2.461q1.0837 0.88053 2.2126 1.3998 1.1515 0.51929 2.5061 0.51929 1.0837 0 1.6708-0.38382 0.6096-0.4064 0.6096-1.1063v-0.04515q0-0.33867-0.13547-0.58702-0.11289-0.27093-0.47413-0.49671-0.33867-0.22578-0.97084-0.45156-0.6096-0.22578-1.603-0.47413-1.1966-0.29352-2.1675-0.65476-0.97084-0.36124-1.6482-0.88053-0.67733-0.54187-1.0612-1.3321-0.36124-0.79022-0.36124-1.9643v-0.04516q0-1.0837 0.4064-1.9417 0.4064-0.88053 1.1289-1.5127 0.74507-0.63218 1.7611-0.97084t2.2352-0.33867q1.7385 0 3.1835 0.51929 1.4676 0.51929 2.6868 1.4901l-1.8062 2.619q-1.0612-0.72249-2.0772-1.1289-1.016-0.42898-2.032-0.42898t-1.5353 0.4064q-0.49671 0.38382-0.49671 0.97084v0.04516q0 0.38382 0.13547 0.67733 0.15804 0.27093 0.54187 0.49671 0.38382 0.22578 1.0386 0.42898 0.67733 0.2032 1.6933 0.47413 1.1966 0.31609 2.1223 0.72249 0.94827 0.38382 1.5804 0.94827 0.65476 0.54187 0.97084 1.2869 0.33867 0.74507 0.33867 1.7836v0.04515q0 1.174-0.42898 2.0997-0.42898 0.90311-1.1966 1.5353-0.76764 0.6096-1.8288 0.94827-1.0612 0.31609-2.3481 0.31609z"/>
</g>
<g fill="#03254c" stroke-width=".26458px" aria-label="Mines">
<path d="m100.37 60.09h3.7479l4.1543 6.683 4.1543-6.683h3.7479v15.804h-3.4544v-10.318l-4.4478 6.7508h-0.0903l-4.4027-6.683v10.25h-3.4092z"/>
<path d="m119.75 63.793h3.4318v12.102h-3.4318zm-0.0903-4.3801h3.6124v3.048h-3.6124z"/>
<path d="m126.43 63.793h3.4318v1.7159q0.29351-0.38382 0.63217-0.72249 0.36125-0.36124 0.79023-0.63218 0.42897-0.27093 0.94826-0.42898 0.51929-0.15804 1.174-0.15804 1.9643 0 3.0254 1.1966 1.0837 1.1966 1.0837 3.2964v7.8345h-3.4318v-6.7508q0-1.2192-0.54187-1.8288-0.54186-0.63218-1.5353-0.63218-0.99342 0-1.5804 0.63218-0.56444 0.6096-0.56444 1.8288v6.7508h-3.4318z"/>
<path d="m148.44 68.895q-0.15805-1.1515-0.8128-1.8514-0.65476-0.72249-1.7385-0.72249-1.0837 0-1.7611 0.69991-0.65476 0.69991-0.85796 1.874zm-2.2126 7.27q-1.3547 0-2.5287-0.45156-1.1515-0.45156-2.0094-1.2869-0.83538-0.83538-1.3095-1.9643-0.47413-1.1515-0.47413-2.5513v-0.04515q0-1.2869 0.42897-2.4384 0.45156-1.1515 1.2418-2.0094 0.79022-0.85796 1.874-1.3547 1.1063-0.49671 2.4384-0.49671 1.5127 0 2.619 0.54187 1.1063 0.54187 1.8288 1.4676 0.74507 0.90311 1.0837 2.0997 0.36125 1.174 0.36125 2.461 0 0.2032-0.0226 0.42898 0 0.22578-0.0226 0.47413h-8.4215q0.24836 1.174 1.016 1.7836 0.79022 0.58702 1.9417 0.58702 0.85795 0 1.5353-0.29351 0.67733-0.29351 1.3998-0.94827l1.9643 1.7385q-0.85796 1.0612-2.0772 1.6708-1.2192 0.58702-2.8674 0.58702z"/>
<path d="m158.58 76.12q-1.2869 0-2.6416-0.42898-1.3321-0.45156-2.5513-1.3998l1.4676-2.2578q0.99343 0.72249 1.9643 1.0837 0.99342 0.36124 1.8514 0.36124 0.74507 0 1.0837-0.24836 0.36125-0.24836 0.36125-0.65476v-0.04516q0-0.27093-0.2032-0.47413t-0.56445-0.33867q-0.33866-0.15804-0.79022-0.29351-0.45156-0.13547-0.94827-0.29351-0.63217-0.18062-1.2869-0.42898-0.63218-0.27093-1.1515-0.67733-0.51929-0.42898-0.85795-1.0386-0.31609-0.6096-0.31609-1.4901v-0.04516q0-0.92569 0.33867-1.6256 0.36124-0.72249 0.94826-1.2192 0.6096-0.49671 1.3998-0.74507 0.8128-0.24836 1.7385-0.24836 1.1515 0 2.3255 0.38382 1.1966 0.36124 2.19 1.016l-1.3095 2.3707q-0.90311-0.51929-1.7611-0.8128-0.85795-0.31609-1.5127-0.31609-0.63218 0-0.94827 0.24836-0.31609 0.22578-0.31609 0.58702v0.04516q0 0.24836 0.2032 0.45156 0.2032 0.18062 0.54187 0.36124 0.33867 0.15804 0.76765 0.31609 0.45155 0.15804 0.94826 0.31609 0.63218 0.2032 1.2869 0.49671 0.65475 0.27093 1.174 0.67733t0.85796 0.99342q0.33866 0.58702 0.33866 1.4224v0.04516q0 1.016-0.36124 1.7611-0.33867 0.72249-0.97085 1.1966-0.63217 0.47413-1.4901 0.72249-0.83538 0.22578-1.8062 0.22578z"/>
</g>
<g fill="#f25c2c" aria-label="@">
<path d="m86.095 72.101q0.54187 0 1.016-0.24836 0.49671-0.24836 0.85796-0.67733 0.38382-0.45156 0.58702-1.0386 0.22578-0.58702 0.22578-1.2869 0-0.97084-0.58702-1.5353-0.58702-0.58702-1.5127-0.58702-0.54187 0-1.0386 0.24836-0.49671 0.24836-0.88053 0.67733-0.36124 0.4064-0.58702 0.99342-0.2032 0.58702-0.2032 1.2644 0 1.0612 0.58702 1.6256 0.58702 0.56444 1.5353 0.56444zm0.83538 7.4507q-2.1675 0-4.0188-0.79022-1.8288-0.76764-3.1835-2.1223-1.3547-1.3321-2.1223-3.1157-0.74507-1.7836-0.74507-3.8156t0.76764-3.8156q0.76764-1.8062 2.0997-3.1383 1.3321-1.3547 3.1383-2.1449t3.8834-0.79022q2.0772 0 3.8608 0.74507 1.8062 0.74507 3.1383 1.9868t2.0772 2.8674q0.76764 1.603 0.76764 3.3415 0 1.4224-0.36124 2.4836-0.33867 1.0612-0.94827 1.7836-0.6096 0.69991-1.445 1.0612-0.8128 0.33867-1.7385 0.33867-1.3772 0-2.2126-0.42898-0.8128-0.42898-1.2418-0.92569-0.58702 0.51929-1.4224 0.94827-0.8128 0.4064-1.9191 0.4064-0.85796 0-1.6256-0.29351-0.74507-0.31609-1.3095-0.88053-0.56444-0.56444-0.88053-1.3547-0.31609-0.8128-0.31609-1.8288 0-1.1966 0.4064-2.2352 0.42898-1.0386 1.1289-1.7836 0.69991-0.76764 1.603-1.1966 0.92569-0.45156 1.9191-0.45156 1.174 0 1.8965 0.45156 0.74507 0.42898 1.2192 1.0837l0.24836-1.1966 2.6642 0.42898-1.0612 6.0734q-0.04516 0.18062-0.06773 0.38382 0 0.18062 0 0.31609 0 0.6096 0.42898 1.016 0.42898 0.4064 1.2192 0.4064 0.6096 0 1.1289-0.29351t0.90311-0.88053q0.38382-0.58702 0.6096-1.445 0.22578-0.85796 0.22578-1.9868 0-1.5579-0.67733-3.0028-0.67733-1.4676-1.874-2.5739-1.174-1.1289-2.8222-1.7836-1.6256-0.67733-3.5221-0.67733-1.9191 0-3.5673 0.72249-1.6256 0.69991-2.8222 1.9191-1.1966 1.2192-1.874 2.8674-0.67733 1.6256-0.67733 3.477 0 1.874 0.67733 3.4996t1.874 2.8222q1.2192 1.2192 2.89 1.9191 1.6708 0.69991 3.6802 0.69991 1.6933 0 2.9577-0.38382 1.2869-0.38382 2.5739-1.1289l0.45156 0.72249q-1.3095 0.79022-2.7771 1.2418-1.445 0.45156-3.206 0.45156z" fill="#f25c2c" stroke-width=".26458px"/>
</g>
</g>
</g>
</svg>
